<svg width="170" height="50" viewBox="0 0 170 50" fill="none" xmlns="http://www.w3.org/2000/svg">
<g clip-path="url(#clip0_1533_865)">
<path d="M156.141 39.24V10H158.623V28.955L165.576 21.832H168.823L160.884 30.026L169.231 39.24H166.052L158.623 30.978V39.24H156.141Z" fill="#181818"/>
<path d="M143.63 39.7841C141.805 39.7841 140.173 39.3818 138.734 38.5771C137.306 37.7724 136.184 36.6788 135.368 35.2961C134.552 33.9021 134.144 32.3381 134.144 30.6041C134.144 29.3008 134.376 28.0881 134.841 26.9661C135.317 25.8328 135.974 24.8411 136.813 23.9911C137.651 23.1411 138.626 22.4781 139.737 22.0021C140.847 21.5261 142.032 21.2881 143.29 21.2881C145.012 21.2881 146.542 21.6678 147.88 22.4271C149.228 23.1751 150.294 24.2121 151.076 25.5381C151.869 26.8641 152.288 28.3941 152.334 30.1281C152.334 30.2641 152.328 30.3774 152.317 30.4681C152.317 30.5474 152.305 30.6494 152.283 30.7741H136.609C136.609 32.1341 136.915 33.3354 137.527 34.3781C138.139 35.4208 138.977 36.2424 140.043 36.8431C141.119 37.4324 142.349 37.7271 143.732 37.7271C145.046 37.7271 146.225 37.4551 147.268 36.9111C148.322 36.3558 149.2 35.5624 149.903 34.5311L151.739 35.5171C150.911 36.8658 149.784 37.9141 148.356 38.6621C146.939 39.4101 145.364 39.7841 143.63 39.7841ZM136.745 28.9041H149.852C149.704 27.8161 149.325 26.8584 148.713 26.0311C148.101 25.1924 147.324 24.5351 146.384 24.0591C145.454 23.5831 144.434 23.3451 143.324 23.3451C142.179 23.3451 141.136 23.5831 140.196 24.0591C139.255 24.5238 138.479 25.1754 137.867 26.0141C137.266 26.8414 136.892 27.8048 136.745 28.9041Z" fill="#181818"/>
<path d="M129.161 39.784C127.858 39.784 126.844 39.3477 126.118 38.475C125.404 37.591 125.047 36.35 125.047 34.752V23.702H123.279V21.832H125.047V15.321H127.529V21.832H131.864V23.702H127.529V34.616C127.529 35.5794 127.716 36.316 128.09 36.826C128.464 37.336 128.997 37.591 129.688 37.591C130.357 37.591 130.946 37.404 131.456 37.03L132.085 39.002C131.7 39.24 131.247 39.427 130.725 39.563C130.204 39.7104 129.683 39.784 129.161 39.784Z" fill="#181818"/>
<path d="M111.58 39.784C108.406 39.784 106.117 39.155 104.712 37.897C103.306 36.639 102.604 34.582 102.604 31.726V21.832H107.823V30.502C107.823 32.338 108.106 33.6357 108.673 34.395C109.251 35.1544 110.22 35.534 111.58 35.534C112.962 35.534 113.931 35.1544 114.487 34.395C115.053 33.6357 115.337 32.338 115.337 30.502V21.832H120.556V31.726C120.556 34.582 119.853 36.639 118.448 37.897C117.054 39.155 114.764 39.784 111.58 39.784Z" fill="#181818"/>
<path d="M87.5905 39.784C86.0151 39.784 84.5758 39.393 83.2725 38.611C81.9805 37.8177 80.9491 36.724 80.1785 35.33C79.4078 33.936 79.0225 32.338 79.0225 30.536C79.0225 28.768 79.3965 27.1927 80.1445 25.81C80.8925 24.416 81.9181 23.3167 83.2215 22.512C84.5361 21.696 86.0378 21.288 87.7265 21.288C88.9505 21.288 90.0838 21.526 91.1265 22.002C92.1691 22.4667 93.0361 23.1183 93.7275 23.957V10H98.9465V39.24H93.7275V36.945C92.9568 37.8403 92.0445 38.5373 90.9905 39.036C89.9365 39.5347 88.8031 39.784 87.5905 39.784ZM89.1545 35.347C90.0725 35.347 90.8828 35.143 91.5855 34.735C92.2881 34.3157 92.8378 33.7433 93.2345 33.018C93.6425 32.2927 93.8465 31.471 93.8465 30.553C93.8465 29.6237 93.6425 28.7963 93.2345 28.071C92.8378 27.3457 92.2881 26.7733 91.5855 26.354C90.8828 25.9347 90.0781 25.725 89.1715 25.725C88.2761 25.725 87.4771 25.9347 86.7745 26.354C86.0831 26.7733 85.5335 27.3513 85.1255 28.088C84.7175 28.8133 84.5135 29.6407 84.5135 30.57C84.5135 31.488 84.7118 32.3097 85.1085 33.035C85.5051 33.749 86.0548 34.3157 86.7575 34.735C87.4601 35.143 88.2591 35.347 89.1545 35.347Z" fill="#181818"/>
<path d="M60.8252 39.2399V11.1899H76.4312V16.0179H66.3332V22.7669H76.0232V27.5949H66.3332V34.4119H76.4312V39.2399H60.8252Z" fill="#181818"/>
<path d="M25 50C38.8071 50 50 38.8071 50 25C50 11.1929 38.8071 0 25 0C11.1929 0 0 11.1929 0 25C0 38.8071 11.1929 50 25 50Z" fill="#2EB97E"/>
<path d="M12.8199 19.334C12.0596 19.8396 11.6139 20.9103 12.454 22.1904C13.294 23.4706 25.2954 32.1116 25.7355 32.3515C26.1756 32.5915 26.6159 32.6314 27.7355 31.7916C28.8558 30.9513 38.2152 24.3882 38.4567 24.1908C38.841 23.8769 38.937 23.1106 38.4567 22.7506C38.4567 22.7506 27.1181 30.6714 26.7469 30.9915C26.3756 31.3115 25.798 30.7915 25.9066 30.1115C26.0156 29.4314 26.0955 29.3513 27.5357 28.3111C28.9759 27.2709 37.1414 21.4942 37.5118 21.2388C37.9314 20.9497 37.9415 20.4386 37.2541 19.9864C36.2987 19.358 25.9747 12.5039 25.6291 12.264C25.2828 12.024 24.8037 11.8057 24.0837 12.2857C23.3637 12.766 14.2168 18.405 12.8199 19.334Z" fill="white"/>
<path d="M25.7358 33.1943C25.447 33.0367 20.1813 29.2627 16.3564 26.3242V32.451C16.3533 36.9234 29.852 39.313 34.3242 33.815V27.9592C31.577 29.8968 28.3636 32.1636 27.7358 32.6342C26.6162 33.4742 26.1759 33.4343 25.7358 33.1943Z" fill="white"/>
<path d="M31.4476 26.4768C31.4476 26.4768 33.4547 27.4187 33.5975 31.2091L32.6251 30.9589L31.847 32.5013C31.5178 28.3507 29.7256 27.749 29.7256 27.749L31.4476 26.4768Z" fill="#141417"/>
</g>
<defs>
<clipPath id="clip0_1533_865">
<rect width="170" height="50" fill="white"/>
</clipPath>
</defs>
</svg>
